<!DOCTYPE svg PUBLIC "-//W3C//DTD SVG 1.1//EN" "http://www.w3.org/Graphics/SVG/1.1/DTD/svg11.dtd">
<!-- Uploaded to: SVG Repo, www.svgrepo.com, Transformed by: SVG Repo Mixer Tools -->
<svg width="800px" height="800px" viewBox="0 0 36 36" version="1.1" xmlns="http://www.w3.org/2000/svg" xmlns:xlink="http://www.w3.org/1999/xlink" fill="#000000">
<g id="SVGRepo_bgCarrier" stroke-width="0"/>
<g id="SVGRepo_tracerCarrier" stroke-linecap="round" stroke-linejoin="round"/>
<g id="SVGRepo_iconCarrier"> <title>roulette</title> <desc>Created with Sketch.</desc> <g id="icons" stroke="none" stroke-width="1" fill="none" fill-rule="evenodd"> <g id="ui-gambling-website-lined-icnos-casinoshunter" transform="translate(-342.000000, -412.000000)" fill="#f5933b" fill-rule="nonzero"> <g id="square-filled" transform="translate(50.000000, 120.000000)"> <path d="M310,292 C319.941125,292 328,300.058875 328,310 C328,319.941125 319.941125,328 310,328 C300.058875,328 292,319.941125 292,310 C292,300.058875 300.058875,292 310,292 Z M301.294248,319.654671 L299.170997,321.778603 C301.791406,324.189005 305.218288,325.736217 309.000703,325.969301 L309.000433,322.962143 C306.045865,322.737484 303.367339,321.525196 301.294248,319.654671 Z M311.00057,322.962067 L311.000299,325.96924 C314.925065,325.727139 318.466977,324.07013 321.122218,321.502031 C321.060882,321.463298 321.003054,321.417268 320.949747,321.363961 L318.982613,319.39751 C316.874016,321.41358 314.088037,322.727064 311.00057,322.962067 Z M310,299 C303.924868,299 299,303.924868 299,310 C299,316.075132 303.924868,321 310,321 C316.075132,321 321,316.075132 321,310 C321,303.924868 316.075132,299 310,299 Z M297.037933,311.00057 L294.03076,311.000299 C294.249702,314.549627 295.625803,317.785845 297.786439,320.336328 L299.916055,318.205164 C298.290292,316.209562 297.245091,313.722203 297.037933,311.00057 Z M325.96924,311.000299 L322.962067,311.00057 C322.765131,313.58791 321.810814,315.963525 320.320332,317.906198 L322.363961,319.949747 C322.395474,319.98126 322.424444,320.014353 322.450871,320.048771 C324.475084,317.544377 325.758451,314.417451 325.96924,311.000299 Z M308.585786,304.343146 C309.509185,305.266544 309.704788,306.642136 309.172598,307.75711 L310.000707,308.585079 L310.827855,307.758058 C310.295101,306.642915 310.490554,305.266805 311.414214,304.343146 C312.585786,303.171573 314.485281,303.171573 315.656854,304.343146 C316.828427,305.514719 316.828427,307.414214 315.656854,308.585786 C314.733456,309.509185 313.357864,309.704788 312.24289,309.172598 L311.414921,309.999293 L312.24289,310.827402 C313.357864,310.295212 314.733456,310.490815 315.656854,311.414214 C316.828427,312.585786 316.828427,314.485281 315.656854,315.656854 C314.485281,316.828427 312.585786,316.828427 311.414214,315.656854 C310.490554,314.733195 310.295101,313.357085 310.827855,312.241942 L310.000707,311.413506 L309.172598,312.24289 C309.704788,313.357864 309.509185,314.733456 308.585786,315.656854 C307.414214,316.828427 305.514719,316.828427 304.343146,315.656854 C303.171573,314.485281 303.171573,312.585786 304.343146,311.414214 C305.266805,310.490554 306.642915,310.295101 307.758058,310.827855 L308.586494,309.999293 L307.758058,309.172145 C306.642915,309.704899 305.266805,309.509446 304.343146,308.585786 C303.171573,307.414214 303.171573,305.514719 304.343146,304.343146 C305.514719,303.171573 307.414214,303.171573 308.585786,304.343146 Z M305.757359,312.828427 C305.366835,313.218951 305.366835,313.852116 305.757359,314.242641 C306.147884,314.633165 306.781049,314.633165 307.171573,314.242641 C307.562097,313.852116 307.562097,313.218951 307.171573,312.828427 C306.781049,312.437903 306.147884,312.437903 305.757359,312.828427 Z M312.828427,312.828427 C312.437903,313.218951 312.437903,313.852116 312.828427,314.242641 C313.218951,314.633165 313.852116,314.633165 314.242641,314.242641 C314.633165,313.852116 314.633165,313.218951 314.242641,312.828427 C313.852116,312.437903 313.218951,312.437903 312.828427,312.828427 Z M322.031716,299.452745 L319.90526,301.580228 C321.633203,303.611044 322.74768,306.179961 322.962143,309.000433 L325.969301,309.000703 C325.744482,305.352396 324.297069,302.034859 322.031716,299.452745 Z M294.030699,309.000703 L297.037857,309.000433 C297.244834,306.278408 298.290093,303.790683 299.916055,301.794836 L297.786439,299.663672 C295.625599,302.214396 294.249443,305.450982 294.030699,309.000703 Z M305.757359,305.757359 C305.366835,306.147884 305.366835,306.781049 305.757359,307.171573 C306.147884,307.562097 306.781049,307.562097 307.171573,307.171573 C307.562097,306.781049 307.562097,306.147884 307.171573,305.757359 C306.781049,305.366835 306.147884,305.366835 305.757359,305.757359 Z M312.828427,305.757359 C312.437903,306.147884 312.437903,306.781049 312.828427,307.171573 C313.218951,307.562097 313.852116,307.562097 314.242641,307.171573 C314.633165,306.781049 314.633165,306.147884 314.242641,305.757359 C313.852116,305.366835 313.218951,305.366835 312.828427,305.757359 Z M299.170997,298.221397 L301.295247,300.344428 C303.368199,298.474415 306.046339,297.26248 309.000433,297.037857 L309.000703,294.030699 C305.218288,294.263783 301.791406,295.810995 299.170997,298.221397 Z M311.000299,294.03076 L311.00057,297.037933 C313.856347,297.255301 316.454186,298.39536 318.496627,300.160647 L320.623025,298.035181 C318.030426,295.731653 314.683996,294.257991 311.000299,294.03076 Z" id="roulette"> </path> </g> </g> </g> </g>
</svg>